<?xml version="1.0" encoding="UTF-8" standalone="no"?>
<!-- Created with Inkscape (http://www.inkscape.org/) -->

<svg
   xmlns:dc="http://purl.org/dc/elements/1.1/"
   xmlns:cc="http://creativecommons.org/ns#"
   xmlns:rdf="http://www.w3.org/1999/02/22-rdf-syntax-ns#"
   xmlns:svg="http://www.w3.org/2000/svg"
   xmlns="http://www.w3.org/2000/svg"
   xmlns:sodipodi="http://sodipodi.sourceforge.net/DTD/sodipodi-0.dtd"
   xmlns:inkscape="http://www.inkscape.org/namespaces/inkscape"
   width="807.6684"
   height="491.52057"
   viewBox="0 0 213.69559 130.04815"
   version="1.1"
   id="svg8"
   sodipodi:docname="JET.svg"
   inkscape:version="0.92.4 (5da689c313, 2019-01-14)">
  <defs
     id="defs2" />
  <sodipodi:namedview
     id="base"
     pagecolor="#ffffff"
     bordercolor="#666666"
     borderopacity="1.0"
     inkscape:pageopacity="0.0"
     inkscape:pageshadow="2"
     inkscape:zoom="0.35"
     inkscape:cx="403.83422"
     inkscape:cy="245.76029"
     inkscape:document-units="px"
     inkscape:current-layer="svg8"
     showgrid="false"
     units="px"
     inkscape:window-width="1920"
     inkscape:window-height="1001"
     inkscape:window-x="-9"
     inkscape:window-y="-9"
     inkscape:window-maximized="1"
     fit-margin-top="0"
     fit-margin-left="0"
     fit-margin-right="0"
     fit-margin-bottom="0" />
  <metadata
     id="metadata5">
    <rdf:RDF>
      <cc:Work
         rdf:about="">
        <dc:format>image/svg+xml</dc:format>
        <dc:type
           rdf:resource="http://purl.org/dc/dcmitype/StillImage" />
        <dc:title></dc:title>
      </cc:Work>
    </rdf:RDF>
  </metadata>
  <path
     inkscape:connector-curvature="0"
     style="fill:#fdb813;fill-opacity:1;fill-rule:evenodd;stroke:none;stroke-width:0.12159199"
     id="path2398"
     d="m 0.18476,23.81865 0.0926,80.99729 c 68.65676,40.49877 168.8888,25.29636 213.38782,1.44682 V 25.57323 C 117.7425,-21.296837 39.91402,8.031151 0.18476,23.81865" />
  <path
     inkscape:connector-curvature="0"
     style="fill:#0a4593;fill-opacity:1;fill-rule:evenodd;stroke:none;stroke-width:0.12159199"
     id="path2400"
     d="m 140.48384,127.74272 c 27.14298,-4.43142 42.34442,-6.49326 73.18136,-21.32651 l 0.0304,-25.26548 c -28.74313,28.71225 -82.35182,45.82256 -134.17542,45.39175 -6.67807,-0.0922 -17.35628,0.15443 -20.00285,-0.21509 27.6043,4.36965 55.02365,4.95438 80.96651,1.41533" />
  <path
     inkscape:connector-curvature="0"
     style="fill:#0a4593;fill-opacity:1;fill-rule:evenodd;stroke:none;stroke-width:0.12159199"
     id="path2402"
     d="m 34.15932,98.53839 c 6.67807,0.0304 16.06388,-0.12305 21.38827,-3.50817 4.76969,-4.15456 8.27823,-9.84798 11.10901,-16.28008 L 80.41315,36.9287 61.20964,37.05151 50.53095,69.67209 C 48.53088,80.01215 42.12967,83.61249 37.32922,82.8743 l -12.06326,-0.8616 -4.58584,14.92493 13.4792,1.60076" />
  <path
     inkscape:connector-curvature="0"
     style="fill:#0a4593;fill-opacity:1;fill-rule:evenodd;stroke:none;stroke-width:0.12159199"
     id="path2404"
     d="m 152.48619,97.61502 14.8938,-45.17726 h 21.72728 l 4.83206,-14.83301 -52.5934,-0.0924 -4.95487,14.80261 h 11.41627 l -15.41665,45.2079 20.09551,0.0922" />
  <path
     inkscape:connector-curvature="0"
     style="fill:#0a4593;fill-opacity:1;fill-rule:evenodd;stroke:none;stroke-width:0.12159199"
     id="path2406"
     d="M 118.14132,97.3998 123.1582,82.10438 H 94.63042 l 2.64645,-8.09341 h 23.75834 l 4.83085,-14.61693 h -23.69549 l 2.33822,-7.2019 h 27.41984 l 5.07768,-15.26344 -46.89948,0.24562 -19.63431,60.16371 47.6688,0.0618" />
  <path
     inkscape:connector-curvature="0"
     style="fill:#0a4593;fill-opacity:1;fill-rule:evenodd;stroke:none;stroke-width:0.12159199"
     id="path2408"
     d="m 129.22078,10.061737 c 16.77118,-0.645653 33.32836,0.739279 53.14664,2.462238 C 162.85677,5.323297 131.62101,0 108.07861,0 69.39582,0 31.11283,9.385686 0.18476,23.81865 L 0,56.74698 C 29.57396,26.58852 81.15122,9.570505 129.22078,10.061737" />
</svg>
