<svg xmlns="http://www.w3.org/2000/svg" viewBox="0 0 481.25 502.86">
    <path d="M180.41,437.69l15.31-40.95,112,4.2h0a35,35,0,0,0,34.57-23.88l40.6-122.5h0a35,35,0,0,0-12.16-38.94L331,185.86,386,109.3,373.71,94.15l-.18-.26-22-27.39L336.26,47.6,171.32,163.28a34.89,34.89,0,0,0-10.68,48.3l14.09,22.14L110.5,409.6M333.37,260.31a16.88,16.88,0,0,1,.79,13L310.1,344.92a17.47,17.47,0,0,1-17.77,11.82l-56.69-3.68a17.56,17.56,0,0,1-15.14-23.8l33.6-87.76h0a17.43,17.43,0,0,1,16.71-11.29l10,.26-6.39,19.78h0a26.42,26.42,0,0,0,.52,17.59l7.88,20h0a8.64,8.64,0,0,0,8.14,5.6,7.85,7.85,0,0,0,3.14-.61,8.67,8.67,0,0,0,5-11.28l-7.79-20.13h0a8,8,0,0,1-.18-5.86l8-24.76,9.8.26a17.68,17.68,0,0,1,15.49,10ZM481.25,34.21l-39.89,8.4a36.25,36.25,0,0,0-13.13,5.86L387,82.68,365.14,55.47l-.26-.35,44.8-36.92h0a53.89,53.89,0,0,1,19.69-8.75L474,0ZM115.85,450.45l7-17,.26.09,32.29,12.95-7.17,17.32M131,475.65a84.18,84.18,0,0,1-61,27.21,70.09,70.09,0,0,1-70-70,8.75,8.75,0,0,1,17.5,0A52.53,52.53,0,0,0,70,485.36a67.52,67.52,0,0,0,43.57-16.88" />
</svg>